<?xml version="1.0" encoding="UTF-8"?>
<svg id="Layer_1" data-name="Layer 1" xmlns="http://www.w3.org/2000/svg" viewBox="0 0 361.4 361.31">
  <defs>
    <style>
      .cls-1 {
        fill: #6eb302;
      }
    </style>
  </defs>
  <path class="cls-1" d="M131.4,10.11c.85.93,2.79,3.19,2.43,4.46l-1.66,5.99c11.66-4.93,23.59-8.64,36.51-9.77,1.32-.12,2.72-.27,3.35-.67h17.32c15.02,1.68,29.77,5.27,43.54,12.35,2.06,1.06,2.28,3.88,1.42,5.67-.69,1.43-3.48,2.7-5.51,1.71-29.25-14.38-63.3-14.82-92.84-1.42l4.02,1.81c2.13.96,3.12,3.36,2.47,5.29-.74,2.21-3.3,3.44-5.6,2.56l-14.12-5.38c-1.68-.64-3.37-3.25-2.65-5.12l5.76-15.14,2.23-2.32h3.33Z"/>
  <path class="cls-1" d="M10.15,232.61v-2c1.59-2.83,4.2-3.95,7.28-2.53.8.37,2.3.76,3.07.92-4.94-11.8-8.55-23.55-9.71-36.33-.12-1.31-.24-2.73-.64-3.36v-17.32c1.63-14.86,5.24-29.4,12.08-43.1,1.06-2.13,3.45-2.75,5.43-2.07s3.36,3.35,2.2,5.73c-14.23,29.08-14.94,62.84-1.44,92.71l2.16-4.22c1.05-2.05,3.24-3.01,5.55-2.09,1.83.73,2.97,3.37,2.09,5.65l-5.4,14.06c-.68,1.78-3.31,3.18-5.24,2.44l-15.28-5.87-2.15-2.64Z"/>
  <path class="cls-1" d="M282.59,16.48c30.82-4.1,58.25,17.78,62.29,47.59,4.11,30.35-17.36,58.28-47.53,62.39-30.19,4.11-58.08-17.04-62.4-47.1-4.33-30.15,16.62-58.76,47.64-62.89ZM308.54,78.8c9.39,5.68,14.28,13.64,17.12,23.01,16.7-19.72,14.18-48.24-4.09-64.99-18.18-16.67-46.38-16.4-64.27.82-17.53,16.88-19.62,45.02-3.14,64.22,2.77-10.28,8.7-18.36,17.94-23.65-9.87-10.83-8.86-26.73,1.46-36.13,10.04-9.14,25.74-8.67,35.24,1.32s9.27,25.05-.27,35.39ZM317.88,109c-.75-11.98-8.15-21.44-19.04-25.28-1.65-.58-2.96-2.5-3.01-4.03-.04-1.18,1.11-3.32,2.35-3.99,9.63-5.17,11.96-17.39,5.28-25.55s-19.24-8.08-25.84-.03-4.45,20.06,4.89,25.41c1.43.82,2.38,3.29,2.1,4.73-.21,1.11-1.65,2.79-3.05,3.24-11.38,3.65-19.2,13.61-19.6,25.56,16.68,12.42,39.24,12.44,55.93-.06Z"/>
  <path class="cls-1" d="M64.1,16.49c30.8-4.17,58.3,17.64,62.39,47.46,4.18,30.4-17.28,58.43-47.59,62.52s-58.04-17.06-62.34-47.18c-4.28-30.02,16.57-58.6,47.54-62.8ZM90.13,78.81c9.46,5.54,14.12,13.66,17.26,22.88,16.75-19.93,13.85-48.21-4.02-64.72-18.27-16.87-46.41-16.51-64.25.49-17.75,16.92-19.82,45.23-3.31,64.35,2.87-10.59,8.87-18.37,17.94-23.6-9.87-10.83-8.86-26.7,1.39-36.07,10.06-9.2,25.76-8.73,35.25,1.21s9.37,25.12-.25,35.46ZM99.5,108.98c-.73-12.01-8.16-21.38-18.99-25.26-1.66-.59-3.05-2.48-3.08-4-.02-1.22,1.07-3.34,2.33-4.01,9.63-5.17,12.05-17.4,5.28-25.61-6.66-8.07-19.2-8.08-25.86.09-6.53,7.99-4.4,19.99,4.89,25.31,1.5.86,2.43,3.19,2.14,4.78-.21,1.15-1.7,2.8-3.15,3.27-11.37,3.67-19.06,13.66-19.48,25.54,16.61,12.34,39.16,12.49,55.91-.1Z"/>
  <path class="cls-1" d="M285.92,234.96c31.04-2.24,57.13,21.35,59.31,51.32,2.22,30.54-20.88,57.02-51.12,59.35-30.46,2.34-57.1-20.57-59.55-50.81-2.47-30.42,20.19-57.61,51.36-59.86ZM308.45,297.57c9.03,5.39,14.45,13.41,17.15,23.12,16.75-19.67,14.32-48.36-4.16-65.18-18.24-16.59-46.44-16.26-64.31,1.11-17.47,16.98-19.31,45.26-2.9,64.03,2.69-10.54,8.93-18.36,17.84-23.69-9.83-10.74-8.73-26.6,1.34-35.91,10.03-9.28,25.72-8.86,35.27,1.01,9.35,9.66,9.7,25.09-.22,35.5ZM317.94,327.73c-.97-12.23-8.37-21.45-19.26-25.27-1.67-.59-2.93-2.69-2.85-4.23.06-1.22,1.28-3.14,2.58-3.86,9.5-5.25,11.67-17.47,4.95-25.52-6.68-8-19.06-7.92-25.65-.02-6.71,8.04-4.6,19.95,4.57,25.37,1.54.91,2.55,2.93,2.36,4.64-.15,1.36-1.73,3.07-3.41,3.62-11.17,3.67-18.78,13.45-19.31,25.39,16.55,12.43,39.46,12.53,56.02-.12Z"/>
  <path class="cls-1" d="M67.43,234.97c31.05-2.31,57.24,21.26,59.43,51.28,2.23,30.52-20.82,57.06-51.14,59.38-30.38,2.32-57.06-20.52-59.53-50.79-2.47-30.34,20.1-57.56,51.23-59.88ZM90.12,297.61c9.14,5.5,14.46,13.48,17.08,23.1,16.58-19.32,14.39-47.54-3.27-64.4-18.02-17.2-46.23-17.25-64.31-.48-18.19,16.88-20.45,45.33-3.84,64.86,2.76-10.03,8.53-18.32,18-23.61-9.62-10.52-9.03-26.17.92-35.69,9.97-9.55,25.9-9.33,35.57.65s9.57,25.25-.14,35.58ZM99.58,327.72c-1-12.09-8.2-21.23-18.86-25.08-1.6-.58-3.13-2.33-3.24-3.79s.95-3.58,2.47-4.41c9.52-5.2,11.87-17.49,5.01-25.64-6.64-7.89-18.99-7.9-25.63.06-6.64,7.95-4.63,19.93,4.58,25.34,1.55.91,2.56,2.99,2.38,4.63-.13,1.16-1.59,3.03-3.03,3.49-11.52,3.65-19.37,13.86-19.61,25.67,16.86,12.35,39.41,12.33,55.94-.26Z"/>
  <path class="cls-1" d="M238.95,250.78c-13.57,6.04-25.79,6.49-38.1-2.02-43.86,12.37-89.05-17.9-93.2-63.01-2.24-24.31,7.46-47.29,25.94-62.62,29.92-24.81,74.09-21.98,100.6,5.93,27.1,28.53,26.67,72.81-1.26,100.77-1.64,1.64-3.11,4.56-1.65,6.81,3.94,6.09,9.81,5.6,10.2,9.65.16,1.7-.95,3.78-2.54,4.49ZM206.35,242.01c6.01,4.68,14.27,5.89,21.31,3.36-6.29-5.16-7.69-14.48-1.82-20.23,25.23-24.75,26.73-64.16,2.3-90.06-23.47-24.88-62.6-27.29-89.02-5.5-29.7,24.5-31.25,69.43-3.03,95.74,17.02,15.87,40.99,21.64,63.46,14.78,2.66-.81,4.6.19,6.8,1.9Z"/>
  <path class="cls-1" d="M227.83,345.43l1.3-4.73c-32.26,14.52-68.62,13.98-100.23-1.59-2.15-1.06-2.72-3.48-2.05-5.43s3.36-3.37,5.73-2.21c29.2,14.32,63.16,14.91,92.89,1.35l-4.35-2.24c-1.98-1.02-2.82-3.32-2-5.39.68-1.7,3.26-3.09,5.27-2.32l14.51,5.54c1.76.67,3.1,3.45,2.39,5.3l-5.58,14.6c-.7,1.84-3.35,2.88-4.9,2.45-2.25-.63-3.67-2.84-2.98-5.33Z"/>
  <path class="cls-1" d="M339.08,232.56c-1.24,2.51-4.05,2.51-5.85,1.69-1.54-.71-2.74-3.4-1.72-5.49,14.33-29.18,14.89-63.16,1.4-92.81l-1.96,3.96c-1.04,2.1-3.3,3.14-5.51,2.23-1.79-.74-3.12-3.27-2.3-5.41l5.39-14.13c.7-1.83,3.31-3.44,5.35-2.66l14.55,5.55c2.12.81,3.01,3.57,2.44,5.25-.8,2.33-3.13,3.25-5.44,2.61l-4.71-1.3c14.49,32.3,14.14,68.64-1.62,100.52Z"/>
  <path class="cls-1" d="M210.12,169.15l-58.02.05c-2.69,0-4.6-2.01-4.61-4.2-.01-2.42,1.79-4.34,4.58-4.34h57.25c2.51,0,4.26,1.65,4.55,3.74.22,1.61-1.02,4.75-3.75,4.75Z"/>
  <path class="cls-1" d="M209.63,200.01l-57.55.02c-2.78,0-4.61-1.99-4.59-4.38.02-2.18,1.93-4.15,4.61-4.15l57.78.02c2.33,0,4.01,2.38,4.02,4.11,0,1.95-1.38,4.38-4.27,4.39Z"/>
</svg>