<?xml version="1.0" encoding="UTF-8"?>
<svg id="Layer_1" data-name="Layer 1" xmlns="http://www.w3.org/2000/svg" viewBox="0 0 361.4 361.31">
  <defs>
    <style>
      .cls-1 {
        fill: #6eb302;
      }
    </style>
  </defs>
  <path class="cls-1" d="M354.38,79.62v10.83c-3.5.06-6.82-.18-10.83-.81l-.04,53.04,10.87.03v10.83h-10.86s0,10.84,0,10.84h10.86s0,10.83,0,10.83l-10.86.04v102.85l10.86.04v10.83h-10.86s0,21.67,0,21.67h-10.88s.05-21.66.05-21.66H28.92s-.11,21.66-.11,21.66l-10.79-.05-.05-21.6H7.02v-10.85l10.96-.07-.05-102.78-10.91-.07v-10.83h10.9s0-10.83,0-10.83H7.02v-10.84l10.9-.04-.07-49.08c-3.67,2.46-7.29,2.66-10.84,1.73v-10.16c3.79.12,8.13-1.78,10.84-4.56l.02-29.96h10.79s.19,24.22.19,24.22L145.33,9.01l5.48,9.23-8.15,4.73.16,20.41,189.79,33.27.09-26.01,10.83-.02v27.89c3.72.81,7.28,1.18,10.85,1.1ZM72.16,142.73h59.71s-.04-113.64-.04-113.64l-59.68,33.72.02,79.92ZM332.69,142.72l-.05-55.09-189.89-33.28-.06,88.37h190ZM28.9,104.82l32.43-.02-.09-35.79-32.47,18.32.13,17.48ZM61.3,142.71v-27.08s-32.57,0-32.57,0l.07,27.08h32.5ZM131.81,164.39v-10.84s-102.95,0-102.95,0v10.83s102.95,0,102.95,0ZM332.59,164.39l.02-10.83h-189.84s0,10.84,0,10.84h189.82ZM131.98,278.14l-.46-7.23-95.53-95.34-7.25-.36.26,8.73,94.44,94.23,8.54-.02ZM131.55,240.28l-65.25-65.09-15.01.29,80.29,80.14c.38-5.64.39-10.14-.03-15.34ZM131.72,209.76l-34.61-34.51-15.35.05,50.07,49.98-.11-15.52ZM131.89,175.13l-19.25.27,19.1,19.06.15-19.33ZM175.25,218.55l.09-10.83h157.34s0-32.5,0-32.5h-189.95s-.02,102.92-.02,102.92h59.71s0-59.58,0-59.58l-27.16-.02ZM92.69,278.15l15.35-.05L28.84,199.06l.03,15.36,63.82,63.73ZM245.83,278.11v-59.56s-32.57,0-32.57,0v59.6s32.57-.05,32.57-.05ZM289.25,278.11v-59.56s-32.57,0-32.57,0v59.6s32.57-.05,32.57-.05ZM332.67,278.11v-59.56s-32.57,0-32.57,0v59.6s32.57-.05,32.57-.05ZM62.07,278.23l15.16-.23-48.16-48.06-.25,15.11,33.25,33.18ZM46.44,277.96l-17.48-17.37-.08,17.62,17.55-.25Z"/>
  <path class="cls-1" d="M24.62,353.98h-2.63c-2.56-1.3-4.58-3.51-4.02-6.3.54-2.69,2.94-4.64,5.61-4.5,2.62.14,4.86,2.23,5.12,5.07.23,2.5-1.72,4.5-4.08,5.74Z"/>
  <path class="cls-1" d="M339.41,353.98h-2.63c-2.56-1.3-4.58-3.51-4.02-6.3.54-2.69,2.94-4.64,5.61-4.5s4.86,2.23,5.12,5.07c.23,2.5-1.72,4.5-4.08,5.74Z"/>
  <path class="cls-1" d="M21.97,321.71c3.19-.88,5.87,1.3,6.54,3.82.77,2.9-.99,5.78-3.86,6.58-2.62.73-5.42-.84-6.39-3.35-1.04-2.71.31-6.11,3.72-7.04Z"/>
  <path class="cls-1" d="M336.76,321.71c3.19-.88,5.87,1.3,6.54,3.82.77,2.9-.99,5.78-3.86,6.58-2.62.73-5.42-.84-6.39-3.35-1.04-2.71.31-6.11,3.72-7.04Z"/>
  <path class="cls-1" d="M336.76,29.2c3.19-.88,5.87,1.3,6.54,3.82.77,2.9-.99,5.78-3.86,6.58-2.62.73-5.42-.84-6.39-3.35-1.04-2.71.31-6.11,3.72-7.04Z"/>
  <path class="cls-1" d="M21.97,29.2c3.19-.88,5.87,1.3,6.54,3.82.77,2.9-.99,5.78-3.86,6.58-2.62.73-5.42-.84-6.39-3.35-1.04-2.71.31-6.11,3.72-7.04Z"/>
  <path class="cls-1" d="M336.76,7.53c3.19-.88,5.87,1.3,6.54,3.82.77,2.9-.99,5.78-3.86,6.58-2.62.73-5.42-.84-6.39-3.35-1.04-2.71.31-6.11,3.72-7.04Z"/>
  <path class="cls-1" d="M21.97,7.53c3.19-.88,5.87,1.3,6.54,3.82.77,2.9-.99,5.78-3.86,6.58-2.62.73-5.42-.84-6.39-3.35-1.04-2.71.31-6.11,3.72-7.04Z"/>
  <path class="cls-1" d="M217.35,99.62c3.19-.88,5.87,1.3,6.54,3.82.77,2.9-.99,5.78-3.86,6.58-2.62.73-5.42-.84-6.39-3.35-1.04-2.71.31-6.11,3.72-7.04Z"/>
  <path class="cls-1" d="M217.35,77.95c3.19-.88,5.87,1.3,6.54,3.82.77,2.9-.99,5.78-3.86,6.58-2.62.73-5.42-.84-6.39-3.35-1.04-2.71.31-6.11,3.72-7.04Z"/>
  <path class="cls-1" d="M217.35,121.28c3.19-.88,5.87,1.3,6.54,3.82.77,2.9-.99,5.78-3.86,6.58-2.62.73-5.42-.84-6.39-3.35-1.04-2.71.31-6.11,3.72-7.04Z"/>
  <polygon class="cls-1" points="164.43 218.55 153.56 218.57 153.56 207.72 164.42 207.72 164.43 218.55"/>
</svg>