<?xml version="1.0" encoding="UTF-8"?>
<svg id="Layer_1" data-name="Layer 1" xmlns="http://www.w3.org/2000/svg" viewBox="0 0 361.4 361.31">
  <defs>
    <style>
      .cls-1 {
        fill: #6eb302;
      }
    </style>
  </defs>
  <path class="cls-1" d="M361.39,328.66c0,18.23-14.46,32.62-32.34,32.62l-252.49.03c-2.05,0-4.49-1.85-4.49-3.96l-.07-187.64-30.53,52.5-30.38,19.71-2.94,4.9c-1.11,1.85-4.06,2.49-5.93,1.5-2.07-1.1-2.9-3.97-1.6-6.31.72-1.29,2.11-3.68,2.57-4.93l1.94-36.25L105.28,28.03,127.4,1.31c1.21-1.46,4.68-1.62,6-.86l17.81,10.26c1.13.65,2.76,3.3,2.27,4.71l-10.25,29.31c9.86,4.53,13.84,14.13,8.41,23.59l-19.46,33.89,175.66.03.12-23.72c.01-2.61,1.88-4.83,4.64-4.81l16.59.07c17.91.08,32.22,14.53,32.22,32.63v222.26ZM135.22,40.06l8.29-23.29-11.46-6.68-16.11,18.85,19.28,11.12ZM125.64,58.52l5.86-10.16-20.94-12.06-5.71,10.21,20.79,12.01ZM121.81,102.01l22.17-38.45c1.16-2.02,1.37-4.7.31-6.69-.9-1.68-3.12-3.21-5.2-3.61l-28.08,48.7c3.92.26,7.18.27,10.8.05ZM118.86,69.53c.99-.83,1.82-2.47,1.72-3.56l-20.07-11.53c-.88.43-2.17,3.21-1.39,3.66l19.74,11.43ZM36.62,212.77L114.69,77.52l-20.96-12.02L15.62,200.84l21,11.93ZM352.39,306.01V106.44c-.05-13.27-10.2-23.5-23.21-23.7-4.12-.06-7.96.03-12.26.25v213.4s12.23.21,12.23.21c8.93-.26,16.17,3.67,23.24,9.41ZM311.77,305.51c-1.88-.59-3.84-2.07-3.84-4.32l-.03-189.96-181.47.02c-.99,3.45-2.96,4.72-5.32,4.52-1.98-.16-3.33-1.96-4.34-4.47h-11.17s-24.55,42.52-24.55,42.52l.03,198.46,246.45.07c13.45,0,24.07-9.02,24.81-22.28.68-12.15-8.68-24.24-21.63-24.37l-18.94-.19ZM29.34,219.2l-15.64-9.06-1.06,19.88,16.7-10.82Z"/>
  <path class="cls-1" d="M249.14,243.56l.41,10.21,32.96-.02.03-46.22-33.03-.03-.26,9.62c-.06,2.32-2.53,4.19-4.49,4.12-2.38-.08-4.38-2.09-4.4-4.57l-.07-9.04-9.51-.15c-2.23-.04-4.25-2.1-4.38-4.09-.15-2.35,1.76-4.86,4.51-4.87l51.61-.04v-61.85s-22.44-.04-22.44-.04c-2.68-.12-4.64-1.84-4.75-4.38s1.88-4.64,4.8-4.63l26.91.04c2.69,0,4.48,2.16,4.48,5.06v198.47c0,2.59-1.99,4.74-4.34,4.74l-27.09.04c-2.61,0-4.65-1.97-4.76-4.22-.14-2.64,1.89-4.78,4.8-4.78l22.39-.06-.04-64.1h-64.83c-2.27-.01-4.14-2.26-4.3-3.81-.25-2.39,1.27-5.11,3.97-5.13l22.88-.13.19-9.61c.04-1.88,2.03-3.75,3.76-4.06s4.87,1.25,4.96,3.52Z"/>
  <path class="cls-1" d="M170.2,330.9v-52.13s-68.26-.01-68.26-.01c-2.49,0-4.29-2.22-4.52-4.36l.04-15.19c0-2.26,2.2-4.24,4.09-4.36,2.48-.16,4.79,1.74,4.83,4.4l.17,10.5h63.58s.07-11.31.07-11.31c.02-2.36,1.84-4.65,4.37-4.65l15.15-.03c2.64,0,4.68,1.9,4.8,4.43.09,2-1.92,4.51-4.29,4.54l-11.02.11-.02,64.08,38.96.03c2.5,0,4.47,2.07,4.61,3.99.19,2.72-1.67,5-4.63,5h-43.5c-2.56-.23-4.44-2.01-4.44-5.01Z"/>
  <path class="cls-1" d="M193.94,207.52l-.15,11.25c-.03,2.51-2.4,4.44-4.84,4.43l-14.37-.06c-2.63-.01-4.48-2.56-4.34-4.66.18-2.75,2.33-4.23,5.09-4.29l9.5-.19v-77.27s-25.23-.18-25.23-.18c-2.58-.02-4.44-2.03-4.55-4.39-.09-1.81,1.64-4.55,4.12-4.55h59.46c2.52,0,4.24,2.69,4.16,4.6-.1,2.31-2.01,4.34-4.58,4.35l-24.37.13.02,61.73,9.41.13c2.2.03,4.25,2.17,4.38,4.16.16,2.35-1.84,4.77-4.4,4.78l-9.3.03Z"/>
  <path class="cls-1" d="M146.56,214.18c2.98,0,4.73,2.08,4.85,4.25.12,2.33-1.72,4.73-4.5,4.73l-40.34.03-.18,8.48c-.05,2.23-2.1,4.28-4.14,4.38-2.29.11-4.84-1.67-4.84-4.58v-98.85c-.01-2.87,1.93-4.99,4.58-5l15.72-.04c2.48,0,4.64,1.92,4.81,4.12.21,2.76-1.93,4.8-4.82,4.86l-11.27.22v77.38s40.12.02,40.12.02Z"/>
</svg>