<?xml version="1.0" encoding="UTF-8"?>
<svg id="Layer_1" data-name="Layer 1" xmlns="http://www.w3.org/2000/svg" viewBox="0 0 361.4 361.31">
  <defs>
    <style>
      .cls-1 {
        fill: #6eb302;
      }
    </style>
  </defs>
  <path class="cls-1" d="M204.11,318.83c3.28,10.68.33,21.8-8.43,28.41-8.78,6.63-20.74,6.77-29.61.26-8.75-6.42-12.43-17.72-8.6-28.58l-85.2-49.06c-7.77,9.03-19.56,11.41-29.85,6.5-9.35-4.46-15.39-14.74-13.68-26.07,1.48-9.83,9.25-18.54,20.35-20.57v-98.12c-11.08-2.03-18.85-10.73-20.34-20.56-1.72-11.32,4.29-21.57,13.64-26.07,10.46-5.04,22.35-2.31,29.94,6.49l85.16-49.07c-3.76-10.7-.28-21.81,8.22-28.29,8.71-6.64,20.76-6.79,29.63-.3,8.75,6.41,12.44,17.74,8.62,28.57l84.73,48.82c7.76-8,18.97-10.39,29.08-5.6,9.02,4.28,15.1,14.02,13.91,25-1.06,9.81-8.27,18.94-19.33,21.41v97.73c11.09,2.02,18.85,10.73,20.35,20.56,1.73,11.31-4.32,21.56-13.65,26.07-10.45,5.05-22.36,2.3-29.91-6.47l-84.99,48.95ZM177.28,17.57c-9.51,2.04-14.73,11.17-12.68,19.97s10.69,14.12,19.28,12.39c9.06-1.83,14.83-10.47,13.06-19.43s-10.2-14.96-19.66-12.94ZM283.8,116.52c-2.25-6.54-1.85-12.26.37-18.48l-84.36-48.62c-10.24,12-27.99,11.93-38.22.02l-85.16,49.08c2.05,5.93,1.87,11.6.03,17.35l44.01,25.36c13.48-20.23,35.82-32.3,59.94-32.37,24.17-.07,46.79,11.73,60.48,32.38l42.92-24.72ZM49.62,91.06c-9.55,2.1-14.63,11.45-12.51,20.05,2.16,8.77,10.91,14.15,19.64,12.21,8.93-1.98,14.66-10.81,12.56-19.88-1.94-8.39-10.33-14.44-19.69-12.38ZM303.54,91.72c-9.57,2.07-14.75,11.42-12.56,20.14,2.18,8.67,10.86,14.07,19.67,12.12,8.82-1.95,14.6-10.73,12.56-19.75-1.91-8.46-10.26-14.55-19.66-12.51ZM171.81,117.66c-35.58,4.97-59.32,37.82-54.17,72.4,5.14,34.53,37.3,58.51,71.94,53.65,34.8-4.88,59.19-37.13,54.28-71.94-4.84-34.35-36.68-59.06-72.05-54.11ZM161.53,311.82c4.55-4.94,9.12-7.5,15.09-8.61l-.03-50.86c-24.01-1.2-45.22-14.74-56.89-33.59-13.59-21.93-14.34-47.79-3.31-70.44l-44.11-25.4c-4.23,4.99-9.04,7.28-15.02,8.83l.25,97.81c15.31,3.57,24,18.64,19.06,33.29l84.97,48.98ZM284.84,262.83c-4.97-14.86,3.98-29.82,19.12-33.33l.16-96.94c-6.57-1.23-11.75-3.91-16.26-8.95l-42.81,24.71c11.09,22.8,10.25,48.87-3.58,70.83-11.86,18.83-33.1,32.02-56.68,33.25v50.83c6.15,1.07,10.81,4.02,15.15,8.59l84.9-48.98ZM48.97,238.18c-9.47,2.49-14.14,12.02-11.69,20.51,2.51,8.7,11.46,13.65,19.96,11.48,9-2.3,14.29-11.39,11.96-20.23s-10.97-14.19-20.23-11.75ZM303.52,238.32c-9.43,2.76-13.87,12.5-10.99,21.11,2.8,8.36,11.83,13.09,20.34,10.57,8.72-2.58,13.77-11.74,11.26-20.37s-11.34-14.04-20.61-11.32ZM179.32,311.15c-9.68.82-16.05,9.25-15.07,18.31.95,8.77,8.9,15.5,18.07,14.6s15.65-8.62,14.87-17.89c-.72-8.52-8.21-15.84-17.87-15.02Z"/>
  <path class="cls-1" d="M175.91,130.62c28.19-2.68,52.33,18.06,54.95,45.25,2.67,27.67-17.8,52.26-45.49,54.84-27.36,2.55-51.92-17.41-54.8-44.75-2.89-27.4,16.95-52.64,45.34-55.34ZM176.59,138.81c-23.87,2.3-40.36,23.55-37.83,46.46s23.09,39.48,46.05,37.26c23.1-2.23,40.18-22.85,37.88-45.97-2.27-22.78-22.36-40.04-46.09-37.76Z"/>
  <path class="cls-1" d="M186.86,204.44c-4.45,1.28.3,7.38-5.86,8.02-2.61.27-4.44-1.8-4.34-4.6.02-.65-.41-2.3-.68-2.91-6.46-1.56-11.63-6.74-12.27-13.4-.28-2.85,1.27-5.02,3.69-5.21,7.19-.58,1.16,10.18,12.48,11.05,3.66.28,7.64-1.27,9.12-4.81s-.34-7.04-3.99-8.04l-10.66-2.9c-6.08-1.65-9.58-7.09-8.92-13.33.62-5.93,5-10.4,10.8-11.94.85-2.18-.57-7.28,4.13-7.55,2.71-.15,4.27,1.7,4.42,4.65.04.77.25,2.14.39,2.91,5.73,1.53,10.16,6.03,10.78,11.94.3,2.89-1.18,5.13-4.09,5.22-2.23.07-3.8-2.01-4.23-4.69-.68-4.21-5.68-5.88-9.62-4.55-1.57.53-3.21,1.82-3.87,2.87-.78,1.25-.71,4.94.58,5.62,6.96,3.65,14.92,2.59,19.83,8.32,3.36,3.92,4,9.25,2.14,14.32-1.39,3.77-4.98,7.61-9.84,9Z"/>
</svg>